<?xml version="1.0" encoding="utf-8"?>
<!-- Generator: Adobe Illustrator 27.2.0, SVG Export Plug-In . SVG Version: 6.00 Build 0)  -->
<svg version="1.1" id="Calque_1" xmlns="http://www.w3.org/2000/svg" xmlns:xlink="http://www.w3.org/1999/xlink" x="0px" y="0px"
	 viewBox="0 0 836.9 806.4" style="enable-background:new 0 0 836.9 806.4;" xml:space="preserve" width="836.9" height="806.4">
<style type="text/css">
	.st0{fill:#FFFFFF;}
	.st1{fill:#018BFF;}
	.st2{fill:#F04D5A;}
	.st3{fill:#F14D5A;}
</style>
<g>
	<g>
		<g>
			<g>
				<g>
					<g>
						<g>
							<path class="st0" d="M140.3,559.5H98.6v-24.6h113.6v24.6h-41.7v105.8h-30.2V559.5z"/>
							<path class="st0" d="M307,643l-16.5,22.3h-72.9v-17.5l51-60.3h-49.7l16.5-22.3h70v17.5l-51,60.3H307z"/>
						</g>
					</g>
				</g>
			</g>
			<g>
				<g>
					<path class="st1" d="M364.2,572.9c0-8.1,6.8-14.7,24.5-14.7c11.4,0,23.8,3.3,35.7,10.1l9.2-22.7c-12-7.6-28.5-11.4-44.8-11.4
						c-36.7,0-54.3,18.2-54.3,40.2c0,47.9,75,31.3,75,55.4c0,7.9-7.2,13.8-24.9,13.8c-15.5,0-31.7-5.5-42.5-13.4L332,652.6
						c11.4,8.8,32,14.9,52.5,14.9c36.8,0,54.7-18.4,54.7-40C439.2,580.2,364.2,596.6,364.2,572.9z"/>
					<path class="st1" d="M497.5,564.8c-15.8,0-31.9,4.2-42.7,12l10.3,20.1c7.2-5.7,18-9.2,28.5-9.2c15.5,0,22.8,7.2,22.8,19.5
						h-22.8c-30.2,0-42.5,12.2-42.5,29.7c0,17.1,13.8,30,37,30c14.5,0,24.9-4.8,30.2-13.8v12.3h26.9v-56.5
						C545.2,578.8,527.7,564.8,497.5,564.8z M516.5,634c-3.3,9-11.6,13.4-21.2,13.4c-10.1,0-16.2-4.8-16.2-12
						c0-6.6,4.2-11.6,17.7-11.6h19.7V634z"/>
					<path class="st1" d="M602.7,564.2c0-9.8,4.6-14.4,13.1-14.4c4.4,0,8.5,1.3,11.6,3.5l7.6-20.8c-5.3-3.7-13.8-5.3-21.9-5.3
						c-24.7,0-38.3,14.5-38.3,36.8v4.4h-15.3v22.1h15.3v74.8h28.7v-74.8h24.7v-22.1h-25.4V564.2z"/>
					<path class="st1" d="M738.3,616.1c0-31.9-22.5-51.4-51.6-51.4c-30.2,0-52.9,21.4-52.9,51c0,29.5,22.3,51,56.5,51
						c17.9,0,31.7-5.5,40.9-16L716,634.2c-6.8,6.4-14.4,9.6-24.9,9.6c-15.1,0-25.6-7.6-28.4-19.9h75
						C737.9,621.5,738.3,618.4,738.3,616.1z M662.4,607.1c2-12.7,11.4-20.6,24.5-20.6c12.9,0,22.3,8.1,24.3,20.6H662.4z"/>
				</g>
				<g>
					<path class="st0" d="M364.2,572.9c0-8.1,6.8-14.7,24.5-14.7c11.4,0,23.8,3.3,35.7,10.1l9.2-22.7c-12-7.6-28.5-11.4-44.8-11.4
						c-36.7,0-54.3,18.2-54.3,40.2c0,47.9,75,31.3,75,55.4c0,7.9-7.2,13.8-24.9,13.8c-15.5,0-31.7-5.5-42.5-13.4L332,652.6
						c11.4,8.8,32,14.9,52.5,14.9c36.8,0,54.7-18.4,54.7-40C439.2,580.2,364.2,596.6,364.2,572.9z"/>
					<path class="st0" d="M497.5,564.8c-15.8,0-31.9,4.2-42.7,12l10.3,20.1c7.2-5.7,18-9.2,28.5-9.2c15.5,0,22.8,7.2,22.8,19.5
						h-22.8c-30.2,0-42.5,12.2-42.5,29.7c0,17.1,13.8,30,37,30c14.5,0,24.9-4.8,30.2-13.8v12.3h26.9v-56.5
						C545.2,578.8,527.7,564.8,497.5,564.8z M516.5,634c-3.3,9-11.6,13.4-21.2,13.4c-10.1,0-16.2-4.8-16.2-12
						c0-6.6,4.2-11.6,17.7-11.6h19.7V634z"/>
					<path class="st0" d="M602.7,564.2c0-9.8,4.6-14.4,13.1-14.4c4.4,0,8.5,1.3,11.6,3.5l7.6-20.8c-5.3-3.7-13.8-5.3-21.9-5.3
						c-24.7,0-38.3,14.5-38.3,36.8v4.4h-15.3v22.1h15.3v74.8h28.7v-74.8h24.7v-22.1h-25.4V564.2z"/>
					<path class="st0" d="M738.3,616.1c0-31.9-22.5-51.4-51.6-51.4c-30.2,0-52.9,21.4-52.9,51c0,29.5,22.3,51,56.5,51
						c17.9,0,31.7-5.5,40.9-16L716,634.2c-6.8,6.4-14.4,9.6-24.9,9.6c-15.1,0-25.6-7.6-28.4-19.9h75
						C737.9,621.5,738.3,618.4,738.3,616.1z M662.4,607.1c2-12.7,11.4-20.6,24.5-20.6c12.9,0,22.3,8.1,24.3,20.6H662.4z"/>
				</g>
			</g>
		</g>
		<g>
			<g>
				<polygon class="st2" points="192.7,705.2 178.7,728.7 164.5,705.2 157.3,705.2 157.3,743 165.5,743 165.5,720.8 176.6,739 
					180.5,739 191.7,720.3 191.7,743 200,743 199.9,705.2 				"/>
			</g>
			<g>
				<path class="st2" d="M283.2,718.9c0-8.5-6.3-13.7-16.4-13.7h-16.4v20.3h-11.8l-9.1-20.3h-8.7L204,743h9l3.4-8.1l2.8-6.7l6-14.5
					l4.9,11.7h-4.9l-2.6,6.9h10.4l1,2.5l3.4,8.1h9.2l-4.7-10.6h8.7V743h8.8v-10.5h7.6h0.4l7.3,10.5h9.4l-8.5-12.2
					C280.3,728.8,283.2,724.6,283.2,718.9z M266.3,725.5h-7.1v-13.2h7.1c5.4,0,8.1,2.4,8.1,6.6C274.3,723,271.6,725.5,266.3,725.5z"
					/>
			</g>
			<g>
				<rect x="290.1" y="705.2" class="st2" width="8.8" height="37.9"/>
			</g>
			<g>
				<path class="st2" d="M326.8,712c3.8,0,7,1.4,9.8,4.3l5.6-5.2c-3.7-4.3-9.2-6.5-15.9-6.5c-12.1,0-20.8,8.2-20.8,19.6
					c0,11.4,8.8,19.6,20.7,19.6c5.4,0,11.1-1.7,15.3-4.8v-15.4h-8v11.1c-2.2,1.2-4.4,1.6-6.8,1.6c-7.2,0-12.3-5-12.3-12.1
					C314.4,716.9,319.4,712,326.8,712z"/>
			</g>
			<g>
				<path class="st2" d="M367.9,704.5c-12,0-20.7,8.3-20.7,19.6c0,11.3,8.8,19.6,20.7,19.6c11.9,0,20.7-8.3,20.7-19.6
					C388.6,712.8,379.8,704.5,367.9,704.5z M367.9,736.2c-6.8,0-11.8-4.9-11.8-12.1c0-7.2,5.1-12.1,11.8-12.1
					c6.8,0,11.8,4.9,11.8,12.1C379.8,731.3,374.7,736.2,367.9,736.2z"/>
			</g>
			<g>
				<polygon class="st2" points="404,705.2 395.2,705.2 395.2,743 423,743 423,735.9 404,735.9 				"/>
			</g>
			<g>
				<path class="st2" d="M445.1,705.2h-17.2V743h17.2c12.4,0,20.9-7.5,20.9-18.9C466,712.6,457.5,705.2,445.1,705.2z M444.7,735.8
					h-8v-23.5h8c7.5,0,12.4,4.5,12.4,11.7C457.1,731.3,452.2,735.8,444.7,735.8z"/>
			</g>
			<g>
				<g>
					<path class="st0" d="M125.3,734.7h-17.4l-3.3,8h-8.9l16.7-37.5h8.6l16.8,37.5h-9.1L125.3,734.7z M122.6,728.1l-5.9-14.4
						l-6,14.4H122.6z"/>
				</g>
			</g>
			<g>
				<g>
					<g>
						<path class="st0" d="M519,718.8c0,8.4-6.3,13.6-16.3,13.6h-7.6v10.3h-8.7v-37.5h16.2C512.8,705.2,519,710.4,519,718.8z
							 M510.3,718.8c0-4.1-2.7-6.5-8-6.5h-7.1v13h7.1C507.6,725.3,510.3,722.9,510.3,718.8z"/>
					</g>
					<g>
						<path class="st0" d="M549.1,742.7l-7.2-10.5h-0.4h-7.6v10.5h-8.7v-37.5h16.2c10,0,16.3,5.2,16.3,13.6c0,5.6-2.8,9.8-7.7,11.8
							l8.4,12.1H549.1z M541,712.3h-7.1v13.1h7.1c5.3,0,8-2.5,8-6.5C548.9,714.7,546.3,712.3,541,712.3z"/>
					</g>
					<g>
						<path class="st0" d="M562.2,724c0-11.2,8.7-19.4,20.5-19.4c11.8,0,20.5,8.2,20.5,19.4c0,11.2-8.7,19.4-20.5,19.4
							C570.9,743.4,562.2,735.1,562.2,724z M594.5,724c0-7.1-5-12-11.7-12c-6.7,0-11.7,4.9-11.7,12s5,12,11.7,12
							C589.5,736,594.5,731.1,594.5,724z"/>
					</g>
					<g>
						<path class="st0" d="M603.7,737.9l4.8-5.8c2,2.7,4.3,4.1,7,4.1c3.5,0,5.3-2.1,5.3-6.2v-17.9h-13.2v-7h21.8v24.3
							c0,9.3-4.7,13.8-13.5,13.8C610.9,743.4,606.4,741.5,603.7,737.9z"/>
					</g>
					<g>
						<path class="st0" d="M667.1,735.8v7H638v-37.5h28.4v7h-19.7v8.2h17.4v6.8h-17.4v8.7H667.1z"/>
					</g>
					<g>
						<path class="st0" d="M671.5,724c0-11.3,8.7-19.4,20.4-19.4c6.5,0,11.9,2.4,15.4,6.6l-5.6,5.1c-2.5-2.9-5.7-4.4-9.4-4.4
							c-7,0-12,4.9-12,12c0,7.1,5,12,12,12c3.8,0,6.9-1.5,9.4-4.5l5.6,5.1c-3.5,4.3-9,6.7-15.5,6.7
							C680.2,743.4,671.5,735.3,671.5,724z"/>
					</g>
					<g>
						<path class="st0" d="M720.5,712.3h-12v-7.1h32.7v7.1h-12v30.4h-8.7V712.3z"/>
					</g>
				</g>
				<g>
					<g>
						<path class="st0" d="M519,718.8c0,8.4-6.3,13.6-16.3,13.6h-7.6v10.3h-8.7v-37.5h16.2C512.8,705.2,519,710.4,519,718.8z
							 M510.3,718.8c0-4.1-2.7-6.5-8-6.5h-7.1v13h7.1C507.6,725.3,510.3,722.9,510.3,718.8z"/>
					</g>
					<g>
						<path class="st0" d="M549.1,742.7l-7.2-10.5h-0.4h-7.6v10.5h-8.7v-37.5h16.2c10,0,16.3,5.2,16.3,13.6c0,5.6-2.8,9.8-7.7,11.8
							l8.4,12.1H549.1z M541,712.3h-7.1v13.1h7.1c5.3,0,8-2.5,8-6.5C548.9,714.7,546.3,712.3,541,712.3z"/>
					</g>
					<g>
						<path class="st0" d="M562.2,724c0-11.2,8.7-19.4,20.5-19.4c11.8,0,20.5,8.2,20.5,19.4c0,11.2-8.7,19.4-20.5,19.4
							C570.9,743.4,562.2,735.1,562.2,724z M594.5,724c0-7.1-5-12-11.7-12c-6.7,0-11.7,4.9-11.7,12s5,12,11.7,12
							C589.5,736,594.5,731.1,594.5,724z"/>
					</g>
					<g>
						<path class="st0" d="M603.7,737.9l4.8-5.8c2,2.7,4.3,4.1,7,4.1c3.5,0,5.3-2.1,5.3-6.2v-17.9h-13.2v-7h21.8v24.3
							c0,9.3-4.7,13.8-13.5,13.8C610.9,743.4,606.4,741.5,603.7,737.9z"/>
					</g>
					<g>
						<path class="st0" d="M667.1,735.8v7H638v-37.5h28.4v7h-19.7v8.2h17.4v6.8h-17.4v8.7H667.1z"/>
					</g>
					<g>
						<path class="st0" d="M671.5,724c0-11.3,8.7-19.4,20.4-19.4c6.5,0,11.9,2.4,15.4,6.6l-5.6,5.1c-2.5-2.9-5.7-4.4-9.4-4.4
							c-7,0-12,4.9-12,12c0,7.1,5,12,12,12c3.8,0,6.9-1.5,9.4-4.5l5.6,5.1c-3.5,4.3-9,6.7-15.5,6.7
							C680.2,743.4,671.5,735.3,671.5,724z"/>
					</g>
					<g>
						<path class="st0" d="M720.5,712.3h-12v-7.1h32.7v7.1h-12v30.4h-8.7V712.3z"/>
					</g>
				</g>
			</g>
		</g>
	</g>
	<g>
		<path class="st3" d="M331.7,459.5c3.8-1.6,7.2-4,10.3-6.9l0,0l0.2-0.2l0,0l0.2-0.2l0-0.1l0.2-0.2l0.1-0.1l0.5-0.5l0.1-0.1l0.1-0.1
			l0.1-0.1l0.2-0.2l0.1-0.1c2.8-3,5.3-6.4,7.5-10l1.5-0.1c1.3-0.1,2.6-0.3,3.7-0.8c-0.9,1.7-1.9,3.4-2.9,5c-1.2,1.8,0.7,4.1,2.7,3.2
			l25.5-10.4c3.2-1.3,5.6-3.6,6.9-6.9c1.5-3.8,2.3-7.9,2.4-12.2v0l0-0.3v0l0-0.3v-0.1v-0.2l0-0.1l0-0.7v-0.1v-0.2l0-0.1l0-0.2v-0.1
			c-0.1-4.1-0.7-8.3-1.8-12.4l1-1.1c0.9-1,1.6-2.1,2.1-3.2c0.6,1.8,1.1,3.7,1.5,5.6c0.4,2.1,3.4,2.4,4.2,0.4l10.7-25.3
			c1.4-3.2,1.3-6.5,0-9.7c-1.6-3.8-4-7.2-6.9-10.3l0,0l-0.2-0.2l0,0l-0.2-0.2l-0.1,0l-0.2-0.2l-0.1-0.1l-0.5-0.5l-0.1-0.1l-0.1-0.1
			l-0.1-0.1l-0.2-0.2l-0.1-0.1c-3-2.8-6.4-5.3-10-7.5l-0.1-1.5c-0.1-1.3-0.3-2.6-0.8-3.7c1.7,0.9,3.4,1.9,5,2.9
			c1.8,1.2,4.1-0.7,3.2-2.7l-10.4-25.5c-1.3-3.2-3.6-5.5-6.9-6.9c-3.8-1.5-7.9-2.3-12.2-2.4h0l-0.3,0h0l-0.3,0h-0.1h-0.2l-0.1,0
			l-0.7,0h-0.1H366l-0.1,0l-0.2,0h-0.1c-4.1,0.1-8.3,0.7-12.4,1.8l-1.1-1c-1-0.9-2.1-1.6-3.2-2.1c1.8-0.6,3.7-1.1,5.6-1.5
			c2.1-0.4,2.4-3.4,0.4-4.2l-25.3-10.7c-3.2-1.4-6.5-1.4-9.7,0c-3.8,1.6-7.2,4-10.3,6.9l0,0l-0.2,0.2l0,0l-0.2,0.2l0,0.1l-0.2,0.2
			l-0.1,0.1l-0.5,0.5l-0.1,0.1l-0.1,0.1l-0.1,0.1l-0.2,0.2l-0.1,0.1c-2.8,3-5.3,6.4-7.5,10l-1.5,0.1c-1.3,0.1-2.6,0.3-3.7,0.8
			c0.9-1.7,1.9-3.4,2.9-5c1.2-1.8-0.7-4.1-2.7-3.2l-25.5,10.4c-3.2,1.3-5.6,3.6-6.9,6.9c-1.5,3.8-2.3,7.9-2.4,12.2v0l0,0.3v0l0,0.3
			v0.1v0.2l0,0.1l0,0.7v0.1v0.2l0,0.1l0,0.2v0.1c0.1,4.1,0.7,8.3,1.8,12.4l-1,1.1c-0.9,1-1.6,2.1-2.1,3.2c-0.6-1.8-1.1-3.7-1.5-5.6
			c-0.4-2.1-3.4-2.4-4.2-0.4l-10.7,25.3c-1.4,3.2-1.4,6.5,0,9.7c1.6,3.8,4,7.2,6.9,10.3l0,0l0.2,0.2l0,0l0.2,0.2l0.1,0l0.2,0.2
			l0.1,0.1l0.5,0.5l0.1,0.1l0.1,0.1l0.1,0.1l0.2,0.2l0.1,0.1c3,2.8,6.4,5.3,10,7.5l0.1,1.5c0.1,1.3,0.3,2.6,0.8,3.7
			c-1.7-0.9-3.4-1.9-5-2.9c-1.8-1.2-4.1,0.7-3.2,2.7l10.4,25.5c1.3,3.2,3.6,5.5,6.9,6.9c3.8,1.5,7.9,2.3,12.2,2.4h0l0.3,0h0l0.3,0
			h0.1h0.2l0.1,0l0.7,0h0.1h0.2l0.1,0l0.2,0h0.1c4.1-0.1,8.3-0.7,12.4-1.8l1.1,1c1,0.9,2.1,1.6,3.2,2.1c-1.8,0.6-3.7,1.1-5.6,1.5
			c-2.1,0.4-2.4,3.4-0.4,4.2l25.3,10.7C325.2,460.9,328.5,460.9,331.7,459.5z M365.6,409.4l0,0.3l0,0.1c0,0,0,0.1,0,0.1l0,0.1
			c-0.1,5.1-0.8,9.7-2,13.7c0,0,0,0.1,0,0.1l-0.3,1c0,0,0,0.1,0,0.1l-0.2,0.6c-0.8,2.1-1.8,4-2.9,5.7c-0.6,0.9-1.2,1.7-1.8,2.4
			c-1.2,1.4-2.6,2.2-4.4,2.6c-0.4,0.1-0.8,0.1-1.2,0.2l-8.5,0.5c-2,0.1-3.8-0.9-4.8-2.6c-1-1.8-0.9-3.9,0.3-5.6l0.1-0.1
			c0,0,0.1-0.1,0.1-0.1l0.5-0.8c0,0,0-0.1,0.1-0.1l0.4-0.6c0,0,0-0.1,0-0.1l0.2-0.3c0,0,0.1-0.1,0.1-0.1l0.1-0.2c0,0,0-0.1,0.1-0.1
			l0.2-0.3c2.3-4.1,4-8.7,5-14.1c0.1-0.4,0.2-0.8,0.2-1.2l0.1-0.7c0,0,0-0.1,0-0.1c0-0.1,0-0.3,0.1-0.4c0.4-2.5,0.6-5.3,0.7-8.1
			c0.1-3.2,2.6-5.8,5.8-6.1l4.3-0.3c0.1,0,0.2,0,0.3,0c1.2,0,2.4,0.4,3.4,1.4c2.9,2.7,4.4,8.7,4.5,11.9l0,0.2l0,0.3c0,0,0,0.1,0,0.1
			L365.6,409.4l2.1,0L365.6,409.4z M386.6,384.6l0.2,0.4c0.9,2.1,1.6,4.1,2,6.1c0.2,1,0.3,2,0.4,2.9c0.1,1.8-0.3,3.5-1.3,4.9
			c-0.2,0.3-0.5,0.7-0.8,1l-5.7,6.3c-1.3,1.5-3.3,2.1-5.2,1.5c-2-0.6-3.4-2.1-3.8-4.1l0-0.2c0,0,0-0.1,0-0.1l0-0.2c0,0,0-0.1,0-0.1
			l-0.1-0.2c0,0,0-0.1,0-0.1l-0.2-0.9c0,0,0-0.1,0-0.1l-0.2-0.7c0,0,0-0.1,0-0.1l-0.1-0.3c-1.3-4.6-3.4-9-6.5-13.5
			c-0.2-0.4-0.5-0.7-0.7-1l-0.4-0.6c0,0-0.1-0.1-0.1-0.1c-0.1-0.1-0.2-0.2-0.3-0.3c-1.5-2.1-3.3-4.1-5.2-6.2c-2.2-2.4-2.3-6-0.2-8.4
			c0,0,0.1-0.1,0.1-0.1l2.8-3.2c0.1-0.1,0.1-0.1,0.2-0.2c0.9-0.9,2-1.4,3.3-1.4c4-0.2,9.3,3.1,11.6,5.3l0.4,0.3c0,0,0.1,0.1,0.1,0.1
			l0.9,0.9c3.5,3.6,6.3,7.4,8.2,11.1c0,0,0,0.1,0.1,0.1l0.6,1.2C386.5,384.5,386.5,384.6,386.6,384.6z M357.9,336.7c0,0,0.1,0,0.1,0
			l0.4,0l0.1,0c0,0,0.1,0,0.1,0l0.2,0l0.2,0l0.1,0c0,0,0,0,0,0l0.1,0c5,0.1,9.7,0.8,13.7,2c0,0,0.1,0,0.1,0l1,0.3c0,0,0.1,0,0.1,0
			l0.7,0.2c0,0,0,0,0,0c2.1,0.8,4,1.8,5.6,2.9c0.9,0.6,1.7,1.2,2.4,1.8c1.4,1.2,2.2,2.6,2.6,4.4c0.1,0.4,0.1,0.8,0.2,1.2l0.5,8.5
			c0.1,2-0.9,3.8-2.6,4.8c-1.8,1-3.9,0.9-5.6-0.3l-0.1,0c0,0-0.1-0.1-0.1-0.1l-0.2-0.1c0,0-0.1,0-0.1-0.1l-0.3-0.2c0,0,0,0,0,0
			L377,362c0,0-0.1-0.1-0.1-0.1l-0.5-0.3c0,0-0.1-0.1-0.1-0.1l-0.3-0.2c0,0-0.1,0-0.1,0l-0.2-0.1c0,0-0.1-0.1-0.1-0.1l-0.3-0.2
			c-4.1-2.3-8.7-4-14.1-5c-0.4-0.1-0.8-0.2-1.2-0.2l-0.7-0.1c0,0-0.1,0-0.1,0c-0.1,0-0.3,0-0.4-0.1c-2.5-0.4-5.3-0.6-8.1-0.7
			c-3.2-0.1-5.8-2.6-6.1-5.8l-0.3-4.4c0-0.1,0-0.2,0-0.3c0-1.2,0.4-2.4,1.4-3.4c2.7-2.9,8.7-4.4,11.9-4.5L357.9,336.7z M320,326
			l0.4-0.4c0,0,0,0,0.1-0.1l0.4-0.4c0,0,0,0,0.1-0.1l0.4-0.4c3.6-3.5,7.4-6.3,11.2-8.3l1.2-0.6c0,0,0.1,0,0.1-0.1l0.4-0.2
			c2.1-0.9,4.1-1.6,6.1-2c1-0.2,2-0.3,2.9-0.4c1.9-0.1,3.5,0.3,4.9,1.3c0.3,0.2,0.7,0.5,1,0.8l6.3,5.7c1.5,1.3,2.1,3.3,1.5,5.2
			c-0.6,2-2.1,3.4-4.1,3.8l-0.2,0c0,0-0.1,0-0.1,0l-0.2,0c-0.1,0-0.1,0-0.2,0l-0.2,0c0,0-0.1,0-0.1,0l-1,0.2c0,0-0.1,0-0.1,0
			l-0.6,0.2c0,0-0.1,0-0.1,0l-0.3,0.1c-4.6,1.3-9,3.4-13.4,6.4c0,0-0.1,0-0.1,0c-0.4,0.2-0.7,0.5-1,0.7l-0.1,0.1c0,0-0.1,0-0.1,0.1
			l-0.5,0.3c0,0-0.1,0-0.1,0.1c-0.1,0.1-0.2,0.2-0.3,0.3c-2,1.5-4.1,3.3-6.2,5.2c-2.4,2.2-6,2.3-8.4,0.2l-3.3-2.8c0,0,0,0,0,0
			c-0.1-0.1-0.1-0.1-0.2-0.2c-0.9-0.9-1.4-2-1.4-3.3C314.5,333.5,317.8,328.3,320,326z M313.5,344.3l3.3,2.9c2,1.7,4.4,2.6,6.8,2.6
			c2.6,0,5.2-1,7.3-2.9c2-1.8,3.9-3.5,5.8-4.9c0.9,0.8,2,1.5,3.1,1.9c0,0.4,0,0.8,0,1.2l0.3,4.4c0.4,5.4,4.8,9.6,10.2,9.7
			c2.7,0.1,5.2,0.3,7.6,0.6c0.1,1.2,0.4,2.5,0.9,3.6c-0.3,0.3-0.6,0.6-0.9,0.9l-2.8,3.3c0,0-0.1,0.1-0.1,0.1
			c-3.5,4.1-3.3,10.1,0.4,14c1.8,1.9,3.5,3.9,4.9,5.8c-0.8,0.9-1.5,2-1.9,3.2c-0.4,0-0.8,0-1.2,0l-4.4,0.3
			c-5.4,0.4-9.6,4.8-9.7,10.2c-0.1,2.7-0.3,5.2-0.6,7.6c-1.2,0.1-2.5,0.4-3.6,0.9c-0.3-0.3-0.6-0.6-0.9-0.9l-3.3-2.8
			c0,0-0.1,0-0.1-0.1c-4.1-3.5-10.1-3.3-14.1,0.4c-1.9,1.8-3.9,3.5-5.8,4.9c-0.9-0.8-2-1.5-3.2-1.9c0-0.4,0-0.8,0-1.2l-0.3-4.4
			c-0.4-5.4-4.8-9.6-10.2-9.7c-2.7-0.1-5.2-0.3-7.6-0.6c-0.1-1.2-0.4-2.5-0.9-3.6c0.3-0.3,0.6-0.6,0.9-0.9l2.8-3.3
			c0,0,0.1-0.1,0.1-0.1c3.5-4.1,3.3-10.1-0.4-14c-1.8-1.9-3.5-3.9-4.9-5.8c0.8-0.9,1.5-2,1.9-3.1c0.2,0,0.4,0,0.6,0
			c0.2,0,0.4,0,0.6,0l4.4-0.3c5.4-0.4,9.6-4.8,9.7-10.2c0.1-2.7,0.3-5.2,0.6-7.6c1.2-0.1,2.5-0.4,3.6-0.9
			C312.9,343.7,313.2,344,313.5,344.3z M285.9,343.6l0-0.3l0-0.2c0,0,0-0.1,0-0.1l0-0.1c0.1-5.1,0.8-9.7,2-13.7c0,0,0-0.1,0-0.1
			l0.3-0.9c0,0,0-0.1,0.1-0.1l0.2-0.6c0.8-2.1,1.8-4,2.9-5.7c0.6-0.9,1.2-1.7,1.8-2.4c1.2-1.4,2.6-2.2,4.4-2.6
			c0.4-0.1,0.8-0.1,1.2-0.2l8.5-0.5c2-0.1,3.8,0.9,4.8,2.6c1,1.8,0.9,3.9-0.3,5.6l-0.1,0.1c0,0-0.1,0.1-0.1,0.1l-0.1,0.2
			c0,0,0,0,0,0.1l-0.2,0.3c0,0,0,0,0,0l-0.2,0.2c0,0,0,0.1-0.1,0.1l-0.2,0.3c0,0,0,0.1-0.1,0.1l-0.2,0.4c0,0,0,0.1,0,0.1l-0.1,0.1
			c0,0,0,0.1-0.1,0.1l-0.1,0.2c0,0,0,0.1-0.1,0.1l-0.2,0.3c-2.3,4.1-4,8.7-5,14.1c-0.1,0.4-0.2,0.8-0.2,1.2l-0.1,0.7
			c0,0,0,0.1,0,0.1c0,0.1,0,0.3-0.1,0.4c-0.4,2.5-0.6,5.3-0.7,8.1c-0.1,3.2-2.6,5.8-5.8,6.1l-4.4,0.3c-0.1,0-0.2,0-0.3,0
			c-1.2,0-2.4-0.4-3.4-1.4c-2.9-2.7-4.4-8.7-4.4-11.9l0-0.5c0,0,0-0.1,0-0.1L285.9,343.6l-2.1,0L285.9,343.6z M264.9,368.5l-0.1-0.1
			c0,0,0,0,0,0l-0.1-0.2c0,0,0,0,0-0.1c-0.9-2-1.6-4.1-2-6.1c-0.2-1-0.3-2-0.4-2.9c-0.1-1.8,0.3-3.5,1.3-4.9c0.2-0.3,0.5-0.7,0.8-1
			l5.7-6.3c1.3-1.5,3.3-2.1,5.2-1.5c2,0.6,3.4,2.1,3.8,4.1l0,0.2c0,0,0,0,0,0.1l0,0.2c0,0,0,0.1,0,0.1l0.1,0.3c0,0,0,0.1,0,0.1
			l0.2,1c0,0,0,0.1,0,0.1l0.2,0.6c0,0.1,0,0.1,0,0.2l0.1,0.3c1.3,4.6,3.4,9,6.4,13.5c0,0,0,0,0.1,0.1c0.2,0.3,0.5,0.7,0.7,1l0.4,0.6
			c0,0,0.1,0.1,0.1,0.1c0.1,0.1,0.2,0.2,0.3,0.3c1.5,2,3.3,4.1,5.2,6.2c2.2,2.4,2.3,6,0.2,8.4c0,0-0.1,0.1-0.1,0.1l-2.8,3.2
			c-0.1,0.1-0.1,0.1-0.2,0.2c-0.9,0.9-2,1.4-3.3,1.4c-4,0.2-9.3-3.1-11.6-5.3l-0.4-0.4c0,0,0,0-0.1-0.1l-0.9-0.9
			c-3.5-3.6-6.3-7.4-8.3-11.1c0,0,0-0.1,0-0.1l-0.2-0.4c0,0,0,0,0-0.1l-0.4-0.8C265,368.5,265,368.5,264.9,368.5z M293.6,416.3
			C293.5,416.3,293.5,416.3,293.6,416.3l-0.3,0c0,0-0.1,0-0.1,0l-0.1,0l-0.2,0l-0.3,0l-0.2,0l-0.1,0c0,0,0,0,0,0l-0.1,0
			c-5.1-0.1-9.7-0.8-13.7-2c0,0-0.1,0-0.1,0l-1-0.3c0,0-0.1,0-0.1,0l-0.6-0.2c-2.1-0.8-4-1.8-5.7-2.9c-0.9-0.6-1.7-1.2-2.4-1.8
			c-1.4-1.2-2.2-2.6-2.6-4.4c-0.1-0.4-0.1-0.8-0.2-1.2l-0.5-8.5c-0.1-2,0.9-3.8,2.6-4.8c1.8-1,3.9-0.9,5.6,0.3l0.1,0.1
			c0.1,0,0.1,0.1,0.2,0.1l0.3,0.2c0,0,0.1,0,0.1,0.1l0.1,0.1c0,0,0,0,0,0l0.2,0.2c0,0,0.1,0.1,0.1,0.1l0.5,0.3c0,0,0.1,0.1,0.1,0.1
			l0.3,0.2c0,0,0.1,0,0.1,0l0.2,0.1c0,0,0.1,0,0.1,0.1l0.3,0.2c4.1,2.3,8.7,4,14.1,5c0.4,0.1,0.8,0.2,1.2,0.2l0.7,0.1
			c0,0,0.1,0,0.1,0c0.1,0,0.3,0,0.4,0.1c2.5,0.4,5.3,0.6,8.1,0.7c3.2,0.1,5.8,2.6,6.1,5.8l0.3,4.4c0,0.1,0,0.2,0,0.3
			c0,1.2-0.4,2.4-1.4,3.4c-2.7,2.9-8.7,4.4-11.9,4.4L293.6,416.3z M319,436.7C319,436.7,319,436.7,319,436.7l-1.2,0.6
			c0,0-0.1,0-0.1,0.1l-0.1,0.1c0,0,0,0,0,0l-0.2,0.1c-2.1,0.9-4.1,1.6-6.1,2c-1,0.2-2,0.3-2.9,0.4c-1.8,0.1-3.5-0.3-4.9-1.3
			c-0.3-0.2-0.7-0.5-1-0.8l-6.3-5.7c-1.5-1.3-2.1-3.3-1.5-5.2c0.6-2,2.1-3.4,4.2-3.8l0.1,0c0,0,0.1,0,0.1,0l0.2,0c0,0,0.1,0,0.1,0
			l0.3-0.1c0,0,0.1,0,0.1,0l1-0.2c0,0,0.1,0,0.1,0l0.7-0.2c0,0,0.1,0,0.1,0l0.3-0.1c4.6-1.3,9-3.4,13.5-6.5c0.4-0.2,0.7-0.5,1.1-0.7
			l0.5-0.4c0,0,0.1-0.1,0.1-0.1c0.1-0.1,0.2-0.2,0.3-0.3c2-1.5,4.1-3.3,6.2-5.2c2.4-2.2,6-2.3,8.4-0.2c0,0,0,0,0.1,0.1l3.2,2.8
			c0,0,0,0,0,0c0.1,0.1,0.1,0.1,0.2,0.2c0.9,0.9,1.4,2,1.4,3.3c0.2,4-3.1,9.3-5.3,11.6l-0.4,0.4c0,0,0,0-0.1,0.1l-0.9,0.9
			C326.6,431.9,322.8,434.7,319,436.7z"/>
		<path class="st0" d="M626.2,363.1H456.1c-2.9-25.9-13.5-49.6-29.5-68.6l48.2-48.2l36.1,36.1c2.6,2.6,6,3.9,9.5,3.9
			c3.4,0,6.8-1.3,9.5-3.9c5.2-5.2,5.2-13.7,0-18.9l-36.1-36.1l44.4-44.4l36.1,36.1c5.2,5.2,13.7,5.2,18.9,0c5.2-5.2,5.2-13.7,0-18.9
			l-45.5-45.5c-2.5-2.5-5.9-3.9-9.5-3.9s-6.9,1.4-9.5,3.9L407.5,275.9c-19.2-15.1-42.7-25-68.4-27.4v-59.7h14
			c7.4,0,13.4-6,13.4-13.4s-6-13.4-13.4-13.4h-14v-23.9h23.5c7.4,0,13.4-6,13.4-13.4s-6-13.4-13.4-13.4h-23.5v-22h51
			c7.4,0,13.4-6,13.4-13.4c0-7.4-6-13.4-13.4-13.4h-64.4c-7.4,0-13.4,6-13.4,13.4v172.7c-64.6,7.4-115,62.4-115,129
			c0,71.6,58.2,129.8,129.8,129.8c67.5,0,123.1-51.8,129.2-117.7h156.4v31.8c0,7.4,6,13.4,13.4,13.4s13.4-6,13.4-13.4v-45.2
			C639.5,369.1,633.6,363.1,626.2,363.1z M327.1,480.8c-56.8,0-103.1-46.2-103.1-103.1c0-56.8,46.2-103.1,103.1-103.1
			c56.3,0,102.1,45.3,103.1,101.3c0,0.2,0,0.3,0,0.5c0,0.3,0,0.5,0,0.8c0,0.2,0,0.3,0,0.5C430.2,434.6,384,480.8,327.1,480.8z"/>
	</g>
</g>
</svg>
